<svg width="20" height="20" viewBox="0 0 20 20" fill="none" xmlns="http://www.w3.org/2000/svg">
<path d="M9.99984 1.66666C8.35166 1.66666 6.7405 2.1554 5.37009 3.07108C3.99968 3.98675 2.93158 5.28824 2.30084 6.81096C1.67011 8.33368 1.50509 10.0092 1.82663 11.6257C2.14817 13.2422 2.94185 14.7271 4.10728 15.8925C5.27272 17.058 6.75758 17.8517 8.37409 18.1732C9.9906 18.4947 11.6662 18.3297 13.1889 17.699C14.7116 17.0683 16.0131 16.0001 16.9288 14.6297C17.8444 13.2593 18.3332 11.6482 18.3332 9.99999C18.3332 8.90564 18.1176 7.82201 17.6988 6.81096C17.28 5.79991 16.6662 4.88125 15.8924 4.10743C15.1186 3.33361 14.1999 2.71978 13.1889 2.30099C12.1778 1.8822 11.0942 1.66666 9.99984 1.66666V1.66666ZM9.99984 17.0833C8.59889 17.0833 7.2294 16.6679 6.06455 15.8896C4.8997 15.1112 3.99182 14.005 3.45569 12.7107C2.91957 11.4164 2.7793 9.99213 3.05261 8.6181C3.32592 7.24407 4.00055 5.98194 4.99117 4.99132C5.98179 4.00069 7.24392 3.32607 8.61795 3.05276C9.99198 2.77945 11.4162 2.91972 12.7105 3.45584C14.0048 3.99196 15.1111 4.89985 15.8894 6.0647C16.6677 7.22955 17.0832 8.59904 17.0832 9.99999C17.0832 11.8786 16.3369 13.6803 15.0085 15.0087C13.6801 16.337 11.8785 17.0833 9.99984 17.0833V17.0833Z" fill="#52575C"/>
<path d="M9.99984 9.58331C9.77882 9.58331 9.56686 9.67111 9.41058 9.82739C9.2543 9.98367 9.1665 10.1956 9.1665 10.4166V13.3333C9.1665 13.5543 9.2543 13.7663 9.41058 13.9226C9.56686 14.0789 9.77882 14.1666 9.99984 14.1666C10.2209 14.1666 10.4328 14.0789 10.5891 13.9226C10.7454 13.7663 10.8332 13.5543 10.8332 13.3333V10.4166C10.8332 10.1956 10.7454 9.98367 10.5891 9.82739C10.4328 9.67111 10.2209 9.58331 9.99984 9.58331Z" fill="#52575C"/>
<path d="M10 5.83331C9.75277 5.83331 9.5111 5.90662 9.30554 6.04398C9.09998 6.18133 8.93976 6.37655 8.84515 6.60496C8.75054 6.83337 8.72579 7.0847 8.77402 7.32718C8.82225 7.56965 8.9413 7.79238 9.11612 7.9672C9.29093 8.14201 9.51366 8.26106 9.75614 8.3093C9.99861 8.35753 10.2499 8.33277 10.4784 8.23816C10.7068 8.14355 10.902 7.98334 11.0393 7.77778C11.1767 7.57221 11.25 7.33054 11.25 7.08331C11.25 6.75179 11.1183 6.43385 10.8839 6.19943C10.6495 5.96501 10.3315 5.83331 10 5.83331Z" fill="#52575C"/>
</svg>
