<svg width="70" height="77" viewBox="0 0 70 77" fill="none" xmlns="http://www.w3.org/2000/svg">
<circle cx="35" cy="42" r="30" fill="#BCE8D9"/>
<circle cx="35" cy="42" r="34" stroke="#2DA185" stroke-width="2"/>
<path d="M49 32H54V51C54 52.6569 52.6569 54 51 54H49V32Z" fill="white" stroke="#2DA185" stroke-width="2"/>
<path d="M46.2299 2.90286L49 1.58378V54H18C16.3431 54 15 52.6569 15 51V1.5L18.4154 2.92308L18.8272 3.09465L19.2299 2.90286L23.0272 1.09465L27.4154 2.92308L27.8272 3.09465L28.2299 2.90286L32.0272 1.09465L36.4154 2.92308L36.8272 3.09465L37.2299 2.90286L41.0272 1.09465L45.4154 2.92308L45.8272 3.09465L46.2299 2.90286Z" fill="white" stroke="#2DA185" stroke-width="2"/>
<path d="M26.064 33.51L30.306 25.922L30.278 25.88H25.644V24.424H31.986V25.964L27.394 34.224L26.064 33.51ZM33.3009 32.544C33.5996 32.2453 34.1876 31.6573 35.0649 30.78C35.9422 29.8933 36.5256 29.2913 36.8149 28.974C37.2069 28.554 37.4729 28.2133 37.6129 27.952C37.7622 27.6907 37.8369 27.378 37.8369 27.014C37.8369 26.65 37.6969 26.3327 37.4169 26.062C37.1369 25.7913 36.7589 25.656 36.2829 25.656C35.8442 25.656 35.4849 25.7867 35.2049 26.048C34.9342 26.3 34.7569 26.594 34.6729 26.93L33.2729 26.356C33.3662 26.02 33.5389 25.6887 33.7909 25.362C34.0522 25.0353 34.3976 24.76 34.8269 24.536C35.2562 24.312 35.7509 24.2 36.3109 24.2C36.9176 24.2 37.4542 24.326 37.9209 24.578C38.3969 24.8207 38.7609 25.1567 39.0129 25.586C39.2742 26.006 39.4049 26.4727 39.4049 26.986C39.4049 27.5367 39.2602 28.0687 38.9709 28.582C38.6909 29.086 38.3316 29.5573 37.8929 29.996C37.7062 30.1733 37.2349 30.64 36.4789 31.396C35.7136 32.1613 35.3309 32.544 35.3309 32.544L35.3589 32.6H39.5309V34H33.3009V32.544Z" fill="#2DA185"/>
</svg>
