<svg width="70" height="77" viewBox="0 0 70 77" fill="none" xmlns="http://www.w3.org/2000/svg">
<circle cx="35" cy="42" r="30" fill="#C7DAEE"/>
<circle cx="35" cy="42" r="34" stroke="#2D6AA1" stroke-width="2"/>
<rect x="12" y="3" width="45" height="52" fill="white"/>
<path d="M23.25 55H16C13.7909 55 12 53.2091 12 51V7C12 4.79086 13.7909 3 16 3H53C55.2091 3 57 4.79086 57 7V16V22.5" stroke="#2D6AA1" stroke-width="2"/>
<circle cx="21" cy="17" r="2" fill="#2D6AA1"/>
<circle cx="35" cy="17" r="2" fill="#2D6AA1"/>
<circle cx="49" cy="17" r="2" fill="#2D6AA1"/>
<circle cx="21" cy="31" r="2" fill="#2D6AA1"/>
<circle cx="21" cy="45" r="2" fill="#2D6AA1"/>
<rect x="23" width="4" height="10" rx="2" fill="#2D6AA1"/>
<rect x="33" width="4" height="10" rx="2" fill="#2D6AA1"/>
<rect x="43" width="4" height="10" rx="2" fill="#2D6AA1"/>
<circle cx="45" cy="44" r="17" fill="white"/>
<path d="M63 44C63 43.4477 62.5523 43 62 43C61.4477 43 61 43.4477 61 44H63ZM58.408 54.4511L57.6193 53.8363L58.408 54.4511ZM38.1382 59.5537L37.7346 60.4686L38.1382 59.5537ZM30.0262 52.0489L29.1454 52.5223L30.0262 52.0489ZM28.2418 41.1428L29.2276 41.3108L28.2418 41.1428ZM33.5393 31.4441L34.2134 32.1827L33.5393 31.4441ZM43.6798 27.0513L43.7575 28.0483L43.6798 27.0513ZM54.578 30.8007C55.1191 30.6904 55.4684 30.1623 55.3582 29.6212L53.561 20.8024C53.4507 20.2613 52.9226 19.912 52.3814 20.0223C51.8402 20.1326 51.491 20.6607 51.6012 21.2018L53.1987 29.0407L45.3599 30.6382C44.8187 30.7485 44.4694 31.2766 44.5797 31.8178C44.69 32.3589 45.2181 32.7082 45.7592 32.5979L54.578 30.8007ZM61 44C61 47.5638 59.8102 51.0255 57.6193 53.8363L59.1967 55.0658C61.6615 51.9037 63 48.0092 63 44H61ZM57.6193 53.8363C55.4284 56.6471 52.3618 58.646 48.9059 59.5159L49.3941 61.4554C53.2821 60.4767 56.732 58.228 59.1967 55.0658L57.6193 53.8363ZM48.9059 59.5159C45.4499 60.3859 41.8024 60.0772 38.5419 58.6387L37.7346 60.4686C41.4028 62.0868 45.5062 62.4341 49.3941 61.4554L48.9059 59.5159ZM38.5419 58.6387C35.2813 57.2003 32.5943 54.7144 30.907 51.5754L29.1454 52.5223C31.0436 56.0537 34.0665 58.8503 37.7346 60.4686L38.5419 58.6387ZM30.907 51.5754C29.2197 48.4364 28.6286 44.8239 29.2276 41.3108L27.2561 40.9747C26.5822 44.9269 27.2471 48.991 29.1454 52.5223L30.907 51.5754ZM29.2276 41.3108C29.8266 37.7978 31.5813 34.5852 34.2134 32.1827L32.8651 30.7055C29.9039 33.4084 27.9299 37.0225 27.2561 40.9747L29.2276 41.3108ZM34.2134 32.1827C36.8456 29.7801 40.2045 28.3251 43.7575 28.0483L43.6022 26.0544C39.605 26.3657 35.8263 28.0026 32.8651 30.7055L34.2134 32.1827ZM43.7575 28.0483C47.3105 27.7716 50.8542 28.6889 53.8266 30.6549L54.93 28.9868C51.586 26.7751 47.5993 25.743 43.6022 26.0544L43.7575 28.0483Z" fill="#2D6AA1"/>
</svg>
